# xmcd
#
# Track frame offsets:
#	150
#	24698
#	40822
#	56002
#	80312
#	97464
#	117663
#	139993
#	162706
#	184448
#	208045
#	230563
#
# Disc length: 3284 seconds
# Revision: 0
# Processed by: cddbd v1.5.2PL0 Copyright (c) Steve Scherf et al.
# Submitted via: dBpowerAMP V12.0
#
DISCID=bb0cd20c
DTITLE=Solomon Burke and De Dijk - Hold On Tight
DYEAR=2010
DGENRE=Blues
TTITLE0=Hold On Tight
TTITLE1=My Rose Saved From The Street
TTITLE2=What A Woman
TTITLE3=No One
TTITLE4=More Beauty
TTITLE5=I Gotta Be With You
TTITLE6=Seventh Heaven
TTITLE7=Good For Nothing
TTITLE8=Text Me
TTITLE9=Don't Despair
TTITLE10=The Bend
TTITLE11=Perfect Song
EXTD=
EXTT0=
EXTT1=
EXTT2=
EXTT3=
EXTT4=
EXTT5=
EXTT6=
EXTT7=
EXTT8=
EXTT9=
EXTT10=
EXTT11=
PLAYORDER=
